 <svg  xmlns="http://www.w3.org/2000/svg" xmlns:xlink="http://www.w3.org/1999/xlink" viewBox="0 0 188 188">
          <path id="left-wing" d="M81.91 109.21a16.12 16.12 0 1 0-32.24 0v22.91z" />
          <path id="right-wing" d="M106.09 109.21a16.12 16.12 0 1 1 32.24 0v22.91z" />
          <path
            id="robot-head"
            d="M94 34.7S69.95 47.47 69.95 85.76v2.8a21.28 21.28 0 0 1 16.59 19.25 1.62 1.62 0 0 0 1.62 1.51h11.7a1.62 1.62 0 0 0 1.62-1.51 21.28 21.28 0 0 1 16.59-19.25v-2.8C118.05 47.47 94 34.7 94 34.7zM94 72a9.16 9.16 0 1 1 9.16-9.16A9.16 9.16 0 0 1 94 72z"
          />
          <path
            d="M103.35 116.86a16.62 16.62 0 0 0-18.7 0c-3.52 2.42-6.69 6.57-6.69 13.7 0 16 16 28.47 16 28.47s16-12.44 16-28.47c.04-7.13-3.09-11.29-6.61-13.7z"
            id="fire"
          />
          <path
            d="M98.86 118.07a8.63 8.63 0 0 0-9.71 0 8.08 8.08 0 0 0-3.47 7.11C85.67 133.52 94 140 94 140s8.33-6.46 8.33-14.79a8.08 8.08 0 0 0-3.47-7.14z"
            id="fire-inner"
          />
    </svg>
